<?xml version='1.0' encoding='UTF-8'?>
<svg width="53mm" height="53mm" version="1.1" viewBox="0 0 53 53" xmlns="http://www.w3.org/2000/svg"><path d="M4,4H5V5H4zM5,4H6V5H5zM6,4H7V5H6zM7,4H8V5H7zM8,4H9V5H8zM9,4H10V5H9zM10,4H11V5H10zM12,4H13V5H12zM13,4H14V5H13zM15,4H16V5H15zM18,4H19V5H18zM19,4H20V5H19zM20,4H21V5H20zM28,4H29V5H28zM31,4H32V5H31zM33,4H34V5H33zM34,4H35V5H34zM37,4H38V5H37zM40,4H41V5H40zM42,4H43V5H42zM43,4H44V5H43zM44,4H45V5H44zM45,4H46V5H45zM46,4H47V5H46zM47,4H48V5H47zM48,4H49V5H48zM4,5H5V6H4zM10,5H11V6H10zM12,5H13V6H12zM13,5H14V6H13zM14,5H15V6H14zM16,5H17V6H16zM19,5H20V6H19zM20,5H21V6H20zM22,5H23V6H22zM26,5H27V6H26zM27,5H28V6H27zM29,5H30V6H29zM31,5H32V6H31zM35,5H36V6H35zM37,5H38V6H37zM39,5H40V6H39zM42,5H43V6H42zM48,5H49V6H48zM4,6H5V7H4zM6,6H7V7H6zM7,6H8V7H7zM8,6H9V7H8zM10,6H11V7H10zM12,6H13V7H12zM13,6H14V7H13zM14,6H15V7H14zM15,6H16V7H15zM16,6H17V7H16zM18,6H19V7H18zM19,6H20V7H19zM20,6H21V7H20zM21,6H22V7H21zM22,6H23V7H22zM24,6H25V7H24zM25,6H26V7H25zM26,6H27V7H26zM27,6H28V7H27zM28,6H29V7H28zM31,6H32V7H31zM32,6H33V7H32zM34,6H35V7H34zM37,6H38V7H37zM39,6H40V7H39zM42,6H43V7H42zM44,6H45V7H44zM45,6H46V7H45zM46,6H47V7H46zM48,6H49V7H48zM4,7H5V8H4zM6,7H7V8H6zM7,7H8V8H7zM8,7H9V8H8zM10,7H11V8H10zM13,7H14V8H13zM14,7H15V8H14zM15,7H16V8H15zM17,7H18V8H17zM19,7H20V8H19zM22,7H23V8H22zM27,7H28V8H27zM28,7H29V8H28zM32,7H33V8H32zM33,7H34V8H33zM34,7H35V8H34zM35,7H36V8H35zM36,7H37V8H36zM39,7H40V8H39zM40,7H41V8H40zM42,7H43V8H42zM44,7H45V8H44zM45,7H46V8H45zM46,7H47V8H46zM48,7H49V8H48zM4,8H5V9H4zM6,8H7V9H6zM7,8H8V9H7zM8,8H9V9H8zM10,8H11V9H10zM13,8H14V9H13zM14,8H15V9H14zM15,8H16V9H15zM17,8H18V9H17zM18,8H19V9H18zM19,8H20V9H19zM23,8H24V9H23zM24,8H25V9H24zM25,8H26V9H25zM26,8H27V9H26zM27,8H28V9H27zM28,8H29V9H28zM29,8H30V9H29zM31,8H32V9H31zM33,8H34V9H33zM34,8H35V9H34zM36,8H37V9H36zM38,8H39V9H38zM39,8H40V9H39zM40,8H41V9H40zM42,8H43V9H42zM44,8H45V9H44zM45,8H46V9H45zM46,8H47V9H46zM48,8H49V9H48zM4,9H5V10H4zM10,9H11V10H10zM12,9H13V10H12zM18,9H19V10H18zM21,9H22V10H21zM22,9H23V10H22zM24,9H25V10H24zM28,9H29V10H28zM29,9H30V10H29zM30,9H31V10H30zM35,9H36V10H35zM36,9H37V10H36zM42,9H43V10H42zM48,9H49V10H48zM4,10H5V11H4zM5,10H6V11H5zM6,10H7V11H6zM7,10H8V11H7zM8,10H9V11H8zM9,10H10V11H9zM10,10H11V11H10zM12,10H13V11H12zM14,10H15V11H14zM16,10H17V11H16zM18,10H19V11H18zM20,10H21V11H20zM22,10H23V11H22zM24,10H25V11H24zM26,10H27V11H26zM28,10H29V11H28zM30,10H31V11H30zM32,10H33V11H32zM34,10H35V11H34zM36,10H37V11H36zM38,10H39V11H38zM40,10H41V11H40zM42,10H43V11H42zM43,10H44V11H43zM44,10H45V11H44zM45,10H46V11H45zM46,10H47V11H46zM47,10H48V11H47zM48,10H49V11H48zM12,11H13V12H12zM14,11H15V12H14zM19,11H20V12H19zM23,11H24V12H23zM24,11H25V12H24zM28,11H29V12H28zM29,11H30V12H29zM32,11H33V12H32zM33,11H34V12H33zM34,11H35V12H34zM36,11H37V12H36zM38,11H39V12H38zM40,11H41V12H40zM6,12H7V13H6zM7,12H8V13H7zM8,12H9V13H8zM10,12H11V13H10zM12,12H13V13H12zM14,12H15V13H14zM16,12H17V13H16zM18,12H19V13H18zM22,12H23V13H22zM23,12H24V13H23zM24,12H25V13H24zM25,12H26V13H25zM26,12H27V13H26zM27,12H28V13H27zM28,12H29V13H28zM35,12H36V13H35zM38,12H39V13H38zM41,12H42V13H41zM42,12H43V13H42zM43,12H44V13H43zM46,12H47V13H46zM47,12H48V13H47zM48,12H49V13H48zM4,13H5V14H4zM6,13H7V14H6zM8,13H9V14H8zM9,13H10V14H9zM11,13H12V14H11zM12,13H13V14H12zM15,13H16V14H15zM21,13H22V14H21zM22,13H23V14H22zM23,13H24V14H23zM25,13H26V14H25zM26,13H27V14H26zM27,13H28V14H27zM29,13H30V14H29zM32,13H33V14H32zM33,13H34V14H33zM34,13H35V14H34zM37,13H38V14H37zM39,13H40V14H39zM40,13H41V14H40zM41,13H42V14H41zM43,13H44V14H43zM44,13H45V14H44zM48,13H49V14H48zM5,14H6V15H5zM6,14H7V15H6zM8,14H9V15H8zM10,14H11V15H10zM13,14H14V15H13zM16,14H17V15H16zM17,14H18V15H17zM18,14H19V15H18zM20,14H21V15H20zM22,14H23V15H22zM24,14H25V15H24zM25,14H26V15H25zM26,14H27V15H26zM28,14H29V15H28zM31,14H32V15H31zM36,14H37V15H36zM37,14H38V15H37zM38,14H39V15H38zM42,14H43V15H42zM43,14H44V15H43zM45,14H46V15H45zM47,14H48V15H47zM7,15H8V16H7zM11,15H12V16H11zM12,15H13V16H12zM13,15H14V16H13zM14,15H15V16H14zM15,15H16V16H15zM16,15H17V16H16zM17,15H18V16H17zM20,15H21V16H20zM22,15H23V16H22zM23,15H24V16H23zM26,15H27V16H26zM28,15H29V16H28zM31,15H32V16H31zM32,15H33V16H32zM33,15H34V16H33zM34,15H35V16H34zM37,15H38V16H37zM39,15H40V16H39zM44,15H45V16H44zM46,15H47V16H46zM48,15H49V16H48zM5,16H6V17H5zM8,16H9V17H8zM10,16H11V17H10zM14,16H15V17H14zM15,16H16V17H15zM18,16H19V17H18zM19,16H20V17H19zM20,16H21V17H20zM23,16H24V17H23zM27,16H28V17H27zM28,16H29V17H28zM29,16H30V17H29zM30,16H31V17H30zM31,16H32V17H31zM32,16H33V17H32zM33,16H34V17H33zM34,16H35V17H34zM35,16H36V17H35zM37,16H38V17H37zM38,16H39V17H38zM40,16H41V17H40zM4,17H5V18H4zM5,17H6V18H5zM6,17H7V18H6zM7,17H8V18H7zM9,17H10V18H9zM11,17H12V18H11zM16,17H17V18H16zM21,17H22V18H21zM24,17H25V18H24zM25,17H26V18H25zM26,17H27V18H26zM29,17H30V18H29zM31,17H32V18H31zM33,17H34V18H33zM34,17H35V18H34zM35,17H36V18H35zM39,17H40V18H39zM40,17H41V18H40zM41,17H42V18H41zM43,17H44V18H43zM47,17H48V18H47zM48,17H49V18H48zM4,18H5V19H4zM5,18H6V19H5zM8,18H9V19H8zM10,18H11V19H10zM11,18H12V19H11zM13,18H14V19H13zM18,18H19V19H18zM19,18H20V19H19zM21,18H22V19H21zM24,18H25V19H24zM26,18H27V19H26zM27,18H28V19H27zM28,18H29V19H28zM35,18H36V19H35zM36,18H37V19H36zM38,18H39V19H38zM39,18H40V19H39zM40,18H41V19H40zM41,18H42V19H41zM42,18H43V19H42zM46,18H47V19H46zM5,19H6V20H5zM7,19H8V20H7zM8,19H9V20H8zM9,19H10V20H9zM13,19H14V20H13zM14,19H15V20H14zM15,19H16V20H15zM16,19H17V20H16zM17,19H18V20H17zM19,19H20V20H19zM21,19H22V20H21zM24,19H25V20H24zM25,19H26V20H25zM27,19H28V20H27zM30,19H31V20H30zM34,19H35V20H34zM36,19H37V20H36zM37,19H38V20H37zM41,19H42V20H41zM42,19H43V20H42zM44,19H45V20H44zM45,19H46V20H45zM46,19H47V20H46zM48,19H49V20H48zM6,20H7V21H6zM8,20H9V21H8zM10,20H11V21H10zM11,20H12V21H11zM14,20H15V21H14zM15,20H16V21H15zM20,20H21V21H20zM22,20H23V21H22zM24,20H25V21H24zM25,20H26V21H25zM26,20H27V21H26zM28,20H29V21H28zM32,20H33V21H32zM33,20H34V21H33zM34,20H35V21H34zM35,20H36V21H35zM40,20H41V21H40zM41,20H42V21H41zM42,20H43V21H42zM43,20H44V21H43zM45,20H46V21H45zM4,21H5V22H4zM8,21H9V22H8zM11,21H12V22H11zM13,21H14V22H13zM14,21H15V22H14zM15,21H16V22H15zM17,21H18V22H17zM18,21H19V22H18zM19,21H20V22H19zM23,21H24V22H23zM28,21H29V22H28zM29,21H30V22H29zM34,21H35V22H34zM35,21H36V22H35zM36,21H37V22H36zM39,21H40V22H39zM40,21H41V22H40zM41,21H42V22H41zM46,21H47V22H46zM48,21H49V22H48zM4,22H5V23H4zM5,22H6V23H5zM10,22H11V23H10zM11,22H12V23H11zM12,22H13V23H12zM13,22H14V23H13zM16,22H17V23H16zM30,22H31V23H30zM33,22H34V23H33zM34,22H35V23H34zM37,22H38V23H37zM39,22H40V23H39zM42,22H43V23H42zM43,22H44V23H43zM47,22H48V23H47zM4,23H5V24H4zM7,23H8V24H7zM8,23H9V24H8zM9,23H10V24H9zM12,23H13V24H12zM13,23H14V24H13zM14,23H15V24H14zM15,23H16V24H15zM16,23H17V24H16zM18,23H19V24H18zM20,23H21V24H20zM22,23H23V24H22zM23,23H24V24H23zM27,23H28V24H27zM28,23H29V24H28zM32,23H33V24H32zM33,23H34V24H33zM35,23H36V24H35zM36,23H37V24H36zM39,23H40V24H39zM43,23H44V24H43zM44,23H45V24H44zM46,23H47V24H46zM47,23H48V24H47zM8,24H9V25H8zM9,24H10V25H9zM10,24H11V25H10zM11,24H12V25H11zM12,24H13V25H12zM13,24H14V25H13zM14,24H15V25H14zM16,24H17V25H16zM18,24H19V25H18zM19,24H20V25H19zM20,24H21V25H20zM24,24H25V25H24zM25,24H26V25H25zM26,24H27V25H26zM27,24H28V25H27zM28,24H29V25H28zM30,24H31V25H30zM31,24H32V25H31zM32,24H33V25H32zM35,24H36V25H35zM38,24H39V25H38zM40,24H41V25H40zM41,24H42V25H41zM42,24H43V25H42zM43,24H44V25H43zM44,24H45V25H44zM47,24H48V25H47zM5,25H6V26H5zM6,25H7V26H6zM8,25H9V26H8zM12,25H13V26H12zM13,25H14V26H13zM19,25H20V26H19zM20,25H21V26H20zM24,25H25V26H24zM28,25H29V26H28zM29,25H30V26H29zM30,25H31V26H30zM31,25H32V26H31zM33,25H34V26H33zM35,25H36V26H35zM37,25H38V26H37zM39,25H40V26H39zM40,25H41V26H40zM44,25H45V26H44zM46,25H47V26H46zM48,25H49V26H48zM6,26H7V27H6zM8,26H9V27H8zM10,26H11V27H10zM12,26H13V27H12zM15,26H16V27H15zM17,26H18V27H17zM18,26H19V27H18zM22,26H23V27H22zM24,26H25V27H24zM26,26H27V27H26zM28,26H29V27H28zM31,26H32V27H31zM34,26H35V27H34zM36,26H37V27H36zM37,26H38V27H37zM38,26H39V27H38zM40,26H41V27H40zM42,26H43V27H42zM44,26H45V27H44zM46,26H47V27H46zM47,26H48V27H47zM5,27H6V28H5zM8,27H9V28H8zM12,27H13V28H12zM14,27H15V28H14zM16,27H17V28H16zM19,27H20V28H19zM21,27H22V28H21zM24,27H25V28H24zM28,27H29V28H28zM35,27H36V28H35zM40,27H41V28H40zM44,27H45V28H44zM46,27H47V28H46zM47,27H48V28H47zM48,27H49V28H48zM4,28H5V29H4zM5,28H6V29H5zM7,28H8V29H7zM8,28H9V29H8zM9,28H10V29H9zM10,28H11V29H10zM11,28H12V29H11zM12,28H13V29H12zM13,28H14V29H13zM14,28H15V29H14zM15,28H16V29H15zM17,28H18V29H17zM18,28H19V29H18zM19,28H20V29H19zM20,28H21V29H20zM22,28H23V29H22zM24,28H25V29H24zM25,28H26V29H25zM26,28H27V29H26zM27,28H28V29H27zM28,28H29V29H28zM29,28H30V29H29zM30,28H31V29H30zM31,28H32V29H31zM33,28H34V29H33zM34,28H35V29H34zM37,28H38V29H37zM40,28H41V29H40zM41,28H42V29H41zM42,28H43V29H42zM43,28H44V29H43zM44,28H45V29H44zM45,28H46V29H45zM48,28H49V29H48zM4,29H5V30H4zM5,29H6V30H5zM6,29H7V30H6zM7,29H8V30H7zM8,29H9V30H8zM9,29H10V30H9zM11,29H12V30H11zM15,29H16V30H15zM16,29H17V30H16zM17,29H18V30H17zM18,29H19V30H18zM19,29H20V30H19zM27,29H28V30H27zM28,29H29V30H28zM29,29H30V30H29zM31,29H32V30H31zM32,29H33V30H32zM33,29H34V30H33zM34,29H35V30H34zM35,29H36V30H35zM37,29H38V30H37zM39,29H40V30H39zM40,29H41V30H40zM42,29H43V30H42zM45,29H46V30H45zM48,29H49V30H48zM4,30H5V31H4zM6,30H7V31H6zM7,30H8V31H7zM9,30H10V31H9zM10,30H11V31H10zM12,30H13V31H12zM14,30H15V31H14zM15,30H16V31H15zM17,30H18V31H17zM18,30H19V31H18zM20,30H21V31H20zM22,30H23V31H22zM24,30H25V31H24zM26,30H27V31H26zM30,30H31V31H30zM32,30H33V31H32zM33,30H34V31H33zM34,30H35V31H34zM37,30H38V31H37zM39,30H40V31H39zM44,30H45V31H44zM45,30H46V31H45zM46,30H47V31H46zM47,30H48V31H47zM5,31H6V32H5zM6,31H7V32H6zM9,31H10V32H9zM11,31H12V32H11zM12,31H13V32H12zM13,31H14V32H13zM14,31H15V32H14zM16,31H17V32H16zM17,31H18V32H17zM18,31H19V32H18zM22,31H23V32H22zM23,31H24V32H23zM24,31H25V32H24zM26,31H27V32H26zM27,31H28V32H27zM28,31H29V32H28zM29,31H30V32H29zM31,31H32V32H31zM34,31H35V32H34zM36,31H37V32H36zM38,31H39V32H38zM39,31H40V32H39zM42,31H43V32H42zM43,31H44V32H43zM45,31H46V32H45zM46,31H47V32H46zM47,31H48V32H47zM48,31H49V32H48zM10,32H11V33H10zM11,32H12V33H11zM12,32H13V33H12zM14,32H15V33H14zM17,32H18V33H17zM19,32H20V33H19zM21,32H22V33H21zM22,32H23V33H22zM26,32H27V33H26zM28,32H29V33H28zM30,32H31V33H30zM34,32H35V33H34zM35,32H36V33H35zM38,32H39V33H38zM41,32H42V33H41zM44,32H45V33H44zM5,33H6V34H5zM6,33H7V34H6zM12,33H13V34H12zM13,33H14V34H13zM14,33H15V34H14zM16,33H17V34H16zM18,33H19V34H18zM20,33H21V34H20zM22,33H23V34H22zM24,33H25V34H24zM25,33H26V34H25zM35,33H36V34H35zM36,33H37V34H36zM45,33H46V34H45zM47,33H48V34H47zM48,33H49V34H48zM5,34H6V35H5zM10,34H11V35H10zM12,34H13V35H12zM16,34H17V35H16zM17,34H18V35H17zM18,34H19V35H18zM23,34H24V35H23zM26,34H27V35H26zM27,34H28V35H27zM28,34H29V35H28zM29,34H30V35H29zM33,34H34V35H33zM34,34H35V35H34zM37,34H38V35H37zM38,34H39V35H38zM39,34H40V35H39zM40,34H41V35H40zM41,34H42V35H41zM43,34H44V35H43zM45,34H46V35H45zM46,34H47V35H46zM47,34H48V35H47zM4,35H5V36H4zM5,35H6V36H5zM6,35H7V36H6zM7,35H8V36H7zM9,35H10V36H9zM11,35H12V36H11zM14,35H15V36H14zM17,35H18V36H17zM18,35H19V36H18zM19,35H20V36H19zM20,35H21V36H20zM22,35H23V36H22zM24,35H25V36H24zM25,35H26V36H25zM26,35H27V36H26zM27,35H28V36H27zM28,35H29V36H28zM30,35H31V36H30zM31,35H32V36H31zM32,35H33V36H32zM33,35H34V36H33zM34,35H35V36H34zM36,35H37V36H36zM37,35H38V36H37zM39,35H40V36H39zM42,35H43V36H42zM45,35H46V36H45zM46,35H47V36H46zM47,35H48V36H47zM48,35H49V36H48zM4,36H5V37H4zM6,36H7V37H6zM9,36H10V37H9zM10,36H11V37H10zM13,36H14V37H13zM14,36H15V37H14zM15,36H16V37H15zM16,36H17V37H16zM17,36H18V37H17zM19,36H20V37H19zM20,36H21V37H20zM21,36H22V37H21zM22,36H23V37H22zM24,36H25V37H24zM26,36H27V37H26zM28,36H29V37H28zM29,36H30V37H29zM30,36H31V37H30zM31,36H32V37H31zM33,36H34V37H33zM37,36H38V37H37zM38,36H39V37H38zM41,36H42V37H41zM42,36H43V37H42zM44,36H45V37H44zM45,36H46V37H45zM47,36H48V37H47zM48,36H49V37H48zM4,37H5V38H4zM6,37H7V38H6zM7,37H8V38H7zM11,37H12V38H11zM12,37H13V38H12zM13,37H14V38H13zM14,37H15V38H14zM15,37H16V38H15zM21,37H22V38H21zM22,37H23V38H22zM25,37H26V38H25zM26,37H27V38H26zM28,37H29V38H28zM31,37H32V38H31zM32,37H33V38H32zM33,37H34V38H33zM35,37H36V38H35zM40,37H41V38H40zM41,37H42V38H41zM42,37H43V38H42zM45,37H46V38H45zM46,37H47V38H46zM47,37H48V38H47zM48,37H49V38H48zM8,38H9V39H8zM10,38H11V39H10zM14,38H15V39H14zM16,38H17V39H16zM19,38H20V39H19zM20,38H21V39H20zM21,38H22V39H21zM22,38H23V39H22zM23,38H24V39H23zM24,38H25V39H24zM25,38H26V39H25zM26,38H27V39H26zM28,38H29V39H28zM31,38H32V39H31zM34,38H35V39H34zM37,38H38V39H37zM38,38H39V39H38zM39,38H40V39H39zM40,38H41V39H40zM41,38H42V39H41zM43,38H44V39H43zM46,38H47V39H46zM47,38H48V39H47zM5,39H6V40H5zM6,39H7V40H6zM7,39H8V40H7zM8,39H9V40H8zM11,39H12V40H11zM12,39H13V40H12zM18,39H19V40H18zM19,39H20V40H19zM22,39H23V40H22zM23,39H24V40H23zM28,39H29V40H28zM30,39H31V40H30zM31,39H32V40H31zM33,39H34V40H33zM34,39H35V40H34zM35,39H36V40H35zM36,39H37V40H36zM42,39H43V40H42zM43,39H44V40H43zM45,39H46V40H45zM46,39H47V40H46zM47,39H48V40H47zM48,39H49V40H48zM4,40H5V41H4zM7,40H8V41H7zM8,40H9V41H8zM10,40H11V41H10zM13,40H14V41H13zM15,40H16V41H15zM16,40H17V41H16zM17,40H18V41H17zM21,40H22V41H21zM24,40H25V41H24zM25,40H26V41H25zM26,40H27V41H26zM27,40H28V41H27zM28,40H29V41H28zM29,40H30V41H29zM31,40H32V41H31zM32,40H33V41H32zM33,40H34V41H33zM35,40H36V41H35zM40,40H41V41H40zM41,40H42V41H41zM42,40H43V41H42zM43,40H44V41H43zM44,40H45V41H44zM45,40H46V41H45zM47,40H48V41H47zM12,41H13V42H12zM13,41H14V42H13zM14,41H15V42H14zM16,41H17V42H16zM17,41H18V42H17zM18,41H19V42H18zM23,41H24V42H23zM24,41H25V42H24zM28,41H29V42H28zM31,41H32V42H31zM32,41H33V42H32zM35,41H36V42H35zM39,41H40V42H39zM40,41H41V42H40zM44,41H45V42H44zM45,41H46V42H45zM47,41H48V42H47zM48,41H49V42H48zM4,42H5V43H4zM5,42H6V43H5zM6,42H7V43H6zM7,42H8V43H7zM8,42H9V43H8zM9,42H10V43H9zM10,42H11V43H10zM15,42H16V43H15zM16,42H17V43H16zM18,42H19V43H18zM21,42H22V43H21zM23,42H24V43H23zM24,42H25V43H24zM26,42H27V43H26zM28,42H29V43H28zM30,42H31V43H30zM36,42H37V43H36zM37,42H38V43H37zM39,42H40V43H39zM40,42H41V43H40zM42,42H43V43H42zM44,42H45V43H44zM47,42H48V43H47zM4,43H5V44H4zM10,43H11V44H10zM14,43H15V44H14zM16,43H17V44H16zM18,43H19V44H18zM23,43H24V44H23zM24,43H25V44H24zM28,43H29V44H28zM29,43H30V44H29zM31,43H32V44H31zM32,43H33V44H32zM34,43H35V44H34zM36,43H37V44H36zM38,43H39V44H38zM39,43H40V44H39zM40,43H41V44H40zM44,43H45V44H44zM45,43H46V44H45zM46,43H47V44H46zM4,44H5V45H4zM6,44H7V45H6zM7,44H8V45H7zM8,44H9V45H8zM10,44H11V45H10zM12,44H13V45H12zM13,44H14V45H13zM15,44H16V45H15zM17,44H18V45H17zM18,44H19V45H18zM19,44H20V45H19zM20,44H21V45H20zM24,44H25V45H24zM25,44H26V45H25zM26,44H27V45H26zM27,44H28V45H27zM28,44H29V45H28zM30,44H31V45H30zM31,44H32V45H31zM34,44H35V45H34zM35,44H36V45H35zM39,44H40V45H39zM40,44H41V45H40zM41,44H42V45H41zM42,44H43V45H42zM43,44H44V45H43zM44,44H45V45H44zM48,44H49V45H48zM4,45H5V46H4zM6,45H7V46H6zM7,45H8V46H7zM8,45H9V46H8zM10,45H11V46H10zM12,45H13V46H12zM14,45H15V46H14zM18,45H19V46H18zM19,45H20V46H19zM22,45H23V46H22zM29,45H30V46H29zM30,45H31V46H30zM31,45H32V46H31zM32,45H33V46H32zM35,45H36V46H35zM36,45H37V46H36zM44,45H45V46H44zM46,45H47V46H46zM47,45H48V46H47zM48,45H49V46H48zM4,46H5V47H4zM6,46H7V47H6zM7,46H8V47H7zM8,46H9V47H8zM10,46H11V47H10zM12,46H13V47H12zM17,46H18V47H17zM22,46H23V47H22zM23,46H24V47H23zM24,46H25V47H24zM27,46H28V47H27zM28,46H29V47H28zM29,46H30V47H29zM31,46H32V47H31zM32,46H33V47H32zM34,46H35V47H34zM35,46H36V47H35zM37,46H38V47H37zM38,46H39V47H38zM40,46H41V47H40zM41,46H42V47H41zM42,46H43V47H42zM45,46H46V47H45zM4,47H5V48H4zM10,47H11V48H10zM13,47H14V48H13zM14,47H15V48H14zM19,47H20V48H19zM27,47H28V48H27zM28,47H29V48H28zM29,47H30V48H29zM30,47H31V48H30zM31,47H32V48H31zM32,47H33V48H32zM34,47H35V48H34zM38,47H39V48H38zM39,47H40V48H39zM40,47H41V48H40zM46,47H47V48H46zM4,48H5V49H4zM5,48H6V49H5zM6,48H7V49H6zM7,48H8V49H7zM8,48H9V49H8zM9,48H10V49H9zM10,48H11V49H10zM13,48H14V49H13zM15,48H16V49H15zM16,48H17V49H16zM21,48H22V49H21zM22,48H23V49H22zM24,48H25V49H24zM26,48H27V49H26zM28,48H29V49H28zM29,48H30V49H29zM31,48H32V49H31zM34,48H35V49H34zM35,48H36V49H35zM36,48H37V49H36zM37,48H38V49H37zM38,48H39V49H38zM39,48H40V49H39zM41,48H42V49H41zM42,48H43V49H42zM43,48H44V49H43zM45,48H46V49H45zM47,48H48V49H47z" id="qr-path" fill="#000000" fill-opacity="1" fill-rule="nonzero" stroke="none"/></svg>
